<svg version="1" xmlns="http://www.w3.org/2000/svg" width="2160" height="2160" viewBox="0 0 1620.000000 1620.000000"><path d="M817.7 68.6c-.1.1-6.6.5-14.3.8-7.8.4-15.3.9-16.5 1.1-1.3.2-5.8.6-9.9 1-9.7.8-20.3 2.2-34.5 4.5-8.3 1.3-11.1 1.8-14.5 2.5-1.4.3-3.8.8-5.5 1-2.5.5-10.5 2.4-25.7 6.1-13.6 3.3-42.3 12.8-52.2 17.3-2.5 1.2-4.8 2.1-5.1 2.1-.8 0-12.1 5.3-25 11.7-47.6 23.8-93.3 62-126.7 105.9-14.1 18.4-32.3 50.7-39.2 69.5-1.6 4.1-3.4 8.7-4.1 10.4-1.3 3.1-7.2 22.4-7.9 26-.2 1.1-.9 4-1.6 6.3-1 4-3.3 15.7-4.6 24.2-.3 1.9-.7 4.6-.9 6-.3 1.4-.7 6.1-1.1 10.5-.3 4.4-.7 9.3-.9 11-.5 3.8-.5 40.9-.1 45.5.3 1.9.7 7.3 1.1 12 .4 4.6.8 8.7 1 9 .2.3.6 3.4 1 7 .3 3.5.8 6.7 1 7 .2.3.6 2.6 1 5 .4 2.5 2 9.5 3.5 15.7 8.8 33.8 18.5 55.2 39.3 86.3 6.7 10 22.4 31.2 26.4 35.5 1 1.1 4.3 5 7.5 8.5 11.6 13.4 18 20.1 33.5 35 9 8.8 22.2 20.8 28.3 25.7 1.4 1.2 5.7 4.7 9.5 8 7.4 6.2 20 15.7 25 18.9 1.7 1 3.2 2.1 3.5 2.4 5 5.2 77.4 48.3 119 70.8 3.6 1.9 7.9 4.3 9.5 5.2 1.7 1 7.7 4.2 13.5 7.3 5.8 3 13.4 7 17 8.9 3.6 2 14.4 7.7 24 12.8 27.1 14.4 34.1 18.1 39.5 21 2.8 1.5 8.4 4.5 12.5 6.7 16.1 8.7 19 10.3 35 19.4 9.1 5.2 17.4 9.9 18.5 10.6 1.1.7 2.6 1.5 3.4 1.9.8.4 8.9 5.3 18 10.9 91.4 56 137.1 97.6 165.3 150.5 11 20.8 21 49.6 23.3 67.8.2 1.9.7 5.3 1.1 7.6 1.9 12.9 2.4 37.2.9 49.3-1.2 10.3-1.6 12.6-4.2 24.3-7.3 33.3-25.4 71.9-47.7 102-12.6 16.9-33.7 38.3-48.1 48.8-35.1 25.5-67.3 40.6-109.5 51.2-6.3 1.6-13.1 3.2-15 3.5-4.7.8-8.1 1.4-10.6 1.9-1.2.2-4.5.7-7.5 1.1-3 .3-6.1.8-6.9 1-4.5 1.1-23.3 2-44 2-23.5 0-32.4-.6-47.5-2.9-1.6-.3-5.1-.8-7.6-1.1-3.8-.5-14.3-2.9-31.2-7-7.8-1.9-30.9-9.9-39.2-13.5-21-9.3-36.1-17.5-54.5-29.6-10.6-6.9-29.2-20.4-31-22.3-.3-.3-3.4-3.1-7-6.1-12.2-10.3-36-33.3-45-43.5-31-35.2-51-66.1-66.8-103.5-10-23.7-19.1-56.7-21.6-78.5-.4-2.8-.9-7-1.1-9.5-.5-4-2.7-17.7-3-19-.1-.3-.5-1.9-.9-3.5-2.8-10.3-10.7-16.5-20.8-16-6.6.3-11.4 2.7-14 7.1-2.1 3.6-4.4 15.1-5.3 26.6-.4 4.6-.9 9.9-1.1 11.8-.3 3.3-.9 18-1.9 48.3-.3 7.6-.7 17.3-1 21.5-.3 4.2-.7 10.8-1 14.7-.3 3.8-.7 11-1 16-.3 4.9-.8 11-1 13.5-.5 4.7-1.1 11.7-2 22.2-.5 6.1-.8 9.2-2 22.3-.4 3.3-1 9.8-1.6 14.5-.5 4.7-1.2 10.7-1.4 13.5-.3 2.7-.8 6.6-1 8.5-.3 1.9-.7 6-1 9-.3 3-.8 7.1-1 9-2.1 16.2-2.6 35.6-1.1 42.2 2.6 11.3 13.3 25.3 25 32.7 11.9 7.5 35.5 18.3 58.1 26.7 6.6 2.4 12.7 4.8 13.5 5.2 1.6.9 39 13.1 48 15.6 23.4 6.6 43.8 11.7 63 15.6 7.8 1.6 26.4 5.1 30 5.6 1.9.3 4.6.7 6 .9 2.6.5 5.1.9 13.3 2 2.7.4 5.7.8 6.6 1 1 .2 4.9.6 8.7 1 3.8.4 8.3.8 9.9 1 1.7.2 5.9.7 9.5 1 3.6.3 7.6.8 9 1 1.4.2 8.4.7 15.5 1.1 7.2.4 15 .8 17.5 1 6.4.5 74.6.5 80 0 2.5-.3 9.9-.7 16.5-1.1 6.6-.4 13.6-.8 15.5-1 5.8-.5 16.3-1.6 19-2 1.4-.2 5.4-.6 9-1 5.4-.5 29-4.1 40.5-6.1 1.7-.3 7.9-1.6 14-3 6-1.3 11.9-2.6 13-2.8 9.9-1.9 39.7-11.1 55.5-17.3 37.5-14.6 77.5-39 107.2-65.4 8.1-7.1 25.3-24.2 31.3-31 3.4-3.9 13.6-15.9 14.8-17.4 21.9-28.4 41.3-61.2 55.2-93.5 1.5-3.6 3.4-7.9 4.1-9.7.8-1.7 1.4-3.7 1.4-4.5 0-.8.4-1.8.9-2.4 1.2-1.3 11.4-32 12.5-37.9.2-1.1 1.5-6.5 2.9-12s2.8-12 3.2-14.5c.4-2.5.9-5.2 1-6 .8-4.7 1.9-10.7 2.1-12 .1-.8.5-4.2.8-7.6.4-3.3.8-7 1.1-8.2 1-5.6 1.9-25.7 1.9-44.7 0-21.2-.8-34.4-2.9-48.5-.2-1.9-.7-5.5-1-8-1.7-13.1-7.2-36.2-12.6-52.9-7.3-22.7-22.1-54.7-32.9-71.1-9-13.7-15.4-23.1-17-24.8-.9-.9-2.2-2.6-3-3.8-7.8-11.1-36.5-41.4-50.1-52.9-32.1-27.2-79.7-59.3-129.9-87.7-2.5-1.4-13.5-7.7-24.5-14s-23.8-13.4-28.5-16c-4.7-2.5-13.4-7.2-19.5-10.5-6-3.3-15.5-8.4-21-11.3-5.5-2.9-14.3-7.5-19.5-10.2-5.2-2.8-13.5-7.2-18.5-9.8-4.9-2.6-14.8-7.8-22-11.5-65.7-34.2-124.3-67.6-166.1-94.6-14.7-9.4-43.3-29.3-44.4-30.8-.3-.4-4.4-3.7-9.2-7.5-28-21.7-52.3-54.2-64-85.6-13.2-35.4-13.4-76.9-.6-115.4 3.8-11.5 14.1-32.7 20.9-43.1 14.6-22.3 37.5-46.3 60.7-63.3 36.6-27 78.9-43.3 128.7-49.7 2.8-.3 6.4-.8 8-1 17-2.2 63.9-2.2 76.5 0 1.4.2 6.3.9 11 1.5 49.2 6.5 94.3 25.3 134.5 55.9 10.2 7.8 33.7 30.4 39 37.6 1.7 2.2 3.2 4.2 3.6 4.5 1.7 1.5 12.9 16.9 12.9 17.8 0 .6.4 1.2.9 1.4 1.3.4 13.6 20.9 20.4 33.8 3 5.8 8.1 16.6 11.2 24 3.2 7.4 6.3 14.8 7 16.5 1.6 3.6 9.4 26.4 12.3 35.5 1.1 3.6 3.9 13.7 6.2 22.5 6.1 23.8 5.4 22.1 10.3 23 2.3.4 4.5.7 4.8.7.4-.1 2.2-.3 4-.6 4.7-.6 10.9-2.5 11-3.4 0-.4.2-1.6.4-2.7 1.5-7.7 2.8-25.3 4-53 .2-6.1.7-15.3.9-20.5.3-5.2.8-15.8 1.1-23.5.3-7.7.8-18.1 1-23 2.2-41 2.2-48.9-.1-67.8-.9-8.3-1.3-11.4-1.9-16.2-.3-2.8-.8-7.3-1-10-.3-2.8-1-8.4-1.5-12.5s-1.1-9-1.2-10.8c-.2-2.5-1.1-4.1-3.8-6.1-3.5-2.8-25.7-17.6-29.5-19.7-1.1-.6-6-3.5-11-6.4-18.6-10.9-50.7-25.8-67.7-31.4-6.3-2.1-22.9-6.7-25.8-7.3-1.4-.2-5-1-8-1.8-5.9-1.5-24.1-5.2-30-6.1-1.9-.3-4.6-.7-6-1-1.4-.2-4.5-.6-7-1-2.5-.3-5.2-.7-6-.9-.8-.2-4.6-.7-8.5-1-3.8-.3-8-.8-9.3-1.1-1.2-.2-4.6-.6-7.5-.9-2.9-.2-8.8-.7-13.2-1-4.4-.4-11.6-.9-16-1.1-8.3-.5-69.3-1.2-69.8-.8z"/></svg>